<?xml version="1.0" encoding="UTF-8" standalone="no"?><!DOCTYPE svg PUBLIC "-//W3C//DTD SVG 1.1//EN" "http://www.w3.org/Graphics/SVG/1.1/DTD/svg11.dtd"><svg width="100%" height="100%" viewBox="0 0 2801 850" version="1.1" xmlns="http://www.w3.org/2000/svg" xmlns:xlink="http://www.w3.org/1999/xlink" xml:space="preserve" xmlns:serif="http://www.serif.com/" style="fill-rule:evenodd;clip-rule:evenodd;stroke-linejoin:round;stroke-miterlimit:2;"><g><path d="M325.761,5.703c-39.78,21.322 -46.463,76.378 -12.73,105.974c9.865,8.593 9.865,8.593 9.865,159.757c0,151.483 0,151.483 -6.683,147.664c-3.819,-1.909 -28.642,-25.141 -55.374,-51.873c-50.282,-49.964 -81.151,-91.017 -98.655,-130.479c-7.956,-17.821 -27.05,-89.426 -27.05,-101.201c0,-11.775 -26.732,-16.549 -36.916,-6.683c-4.455,4.774 -5.092,9.547 -3.501,32.779c0.955,14.957 5.728,41.371 10.184,58.556c4.455,17.503 7.638,31.824 7.32,32.461c-0.636,0.318 -16.549,-9.229 -35.961,-21.322c-37.234,-23.232 -46.781,-27.05 -62.375,-23.55c-16.549,3.819 -18.776,23.868 -4.137,36.916c3.501,2.864 14.639,9.547 25.141,14.957c23.868,11.775 80.515,51.555 116.158,81.151c33.097,27.369 124.75,119.659 122.523,123.159c-0.955,1.591 -7.638,3.501 -15.276,4.774c-7.32,1.273 -34.688,7.001 -60.784,13.048c-26.414,6.047 -48.054,10.82 -48.054,10.82c-0.318,0 -4.774,-3.819 -9.547,-8.274c-30.869,-28.642 -80.515,-20.367 -99.609,16.23c-7.001,13.684 -6.047,42.008 2.228,58.238c12.73,24.823 45.19,38.189 71.922,29.278c16.867,-5.41 31.506,-19.731 39.462,-38.189c5.728,-13.366 8.593,-16.23 18.776,-18.776c6.365,-1.909 20.367,-5.41 30.869,-8.274c10.502,-2.864 31.188,-5.728 46.145,-6.683c35.325,-2.228 47.736,4.137 62.057,31.824c9.547,18.776 9.547,18.776 10.502,93.881c0.955,75.105 0.955,75.105 -12.093,87.516c-7.001,6.683 -14.957,15.912 -17.185,20.686c-22.913,45.19 12.411,98.973 65.239,98.973c17.185,0 44.235,-15.276 55.056,-30.869c19.731,-28.323 13.366,-68.422 -14.321,-90.38c-12.73,-9.865 -12.73,-9.865 -11.775,-166.44c0.955,-156.256 0.955,-156.256 9.865,-174.396c24.505,-50.282 91.972,-84.97 197.946,-102.474c23.868,-4.137 33.097,-7.001 37.234,-12.093c6.683,-7.638 4.774,-20.049 -4.137,-29.278c-5.728,-6.047 -6.365,-6.047 -53.783,1.909c-26.414,4.137 -48.691,7.001 -49.327,6.047c-0.636,-1.273 10.502,-26.096 24.505,-55.056c21.959,-46.145 25.141,-54.419 22.595,-62.057c-3.819,-11.457 -16.23,-18.458 -27.369,-15.594c-7.32,1.591 -11.775,8.593 -28.96,44.235c-11.138,22.913 -27.05,50.919 -35.325,62.057c-22.277,29.596 -87.834,87.198 -91.972,80.833c-0.955,-1.591 -1.909,-43.599 -1.909,-93.245c-0.636,-90.38 -0.636,-90.38 14.003,-105.338c15.912,-16.549 19.413,-28.323 17.185,-53.783c-1.909,-17.821 -7.956,-27.687 -26.096,-42.326c-10.184,-8.274 -14.957,-9.865 -33.097,-10.502c-16.549,-0.955 -23.868,0.318 -32.779,5.41Z" style="fill:#980600;fill-rule:nonzero;"/><g transform="matrix(2.907355,0,0,2.907355,-401.42437,-1202.644313)"><g transform="matrix(165.65466,0,0,165.65466,378.778563,536.571552)"><path d="M0.083,-0l0,-0.7l0.162,0l0,0.568l0.35,-0l0,0.132l-0.513,-0Z" style="fill:#444;fill-rule:nonzero;"/></g><g transform="matrix(165.65466,0,0,165.65466,478.171359,536.571552)"><path d="M0.339,0.008c-0.061,0 -0.115,-0.012 -0.161,-0.036c-0.046,-0.024 -0.082,-0.057 -0.107,-0.098c-0.025,-0.042 -0.038,-0.089 -0.038,-0.142c0,-0.054 0.012,-0.101 0.037,-0.143c0.025,-0.042 0.059,-0.074 0.102,-0.098c0.043,-0.024 0.092,-0.035 0.147,-0.035c0.053,0 0.1,0.011 0.143,0.034c0.042,0.022 0.076,0.054 0.1,0.096c0.025,0.042 0.037,0.091 0.037,0.149c0,0.006 -0,0.013 -0.001,0.02c-0,0.008 -0.001,0.015 -0.002,0.021l-0.437,0l0,-0.091l0.355,0l-0.06,0.027c0,-0.028 -0.005,-0.052 -0.017,-0.073c-0.011,-0.021 -0.027,-0.037 -0.047,-0.049c-0.02,-0.012 -0.043,-0.018 -0.07,-0.018c-0.027,0 -0.05,0.006 -0.071,0.018c-0.02,0.012 -0.036,0.028 -0.047,0.049c-0.011,0.021 -0.017,0.046 -0.017,0.074l0,0.024c-0,0.029 0.006,0.055 0.019,0.077c0.013,0.022 0.031,0.039 0.055,0.051c0.024,0.012 0.052,0.018 0.084,0.018c0.029,-0 0.054,-0.004 0.075,-0.013c0.022,-0.009 0.042,-0.022 0.06,-0.04l0.083,0.09c-0.025,0.028 -0.056,0.05 -0.093,0.065c-0.037,0.015 -0.08,0.022 -0.129,0.022Z" style="fill:#444;fill-rule:nonzero;"/></g><g transform="matrix(165.65466,0,0,165.65466,582.699449,536.571552)"><path d="M0.39,0.008c-0.047,0 -0.087,-0.01 -0.121,-0.03c-0.034,-0.02 -0.06,-0.05 -0.078,-0.091c-0.018,-0.041 -0.027,-0.093 -0.027,-0.156c0,-0.063 0.009,-0.115 0.028,-0.156c0.019,-0.041 0.045,-0.071 0.08,-0.091c0.034,-0.02 0.074,-0.03 0.119,-0.03c0.051,0 0.096,0.011 0.137,0.034c0.04,0.023 0.072,0.055 0.096,0.096c0.024,0.041 0.035,0.09 0.035,0.146c0,0.056 -0.012,0.105 -0.035,0.146c-0.024,0.041 -0.056,0.073 -0.096,0.096c-0.04,0.023 -0.086,0.034 -0.137,0.034Zm-0.317,-0.008l-0,-0.742l0.156,0l0,0.313l-0.01,0.16l0.003,0.16l0,0.11l-0.149,-0Zm0.29,-0.12c0.026,0 0.049,-0.006 0.07,-0.018c0.021,-0.012 0.037,-0.029 0.049,-0.052c0.012,-0.023 0.018,-0.049 0.018,-0.08c0,-0.031 -0.006,-0.058 -0.018,-0.08c-0.012,-0.022 -0.029,-0.039 -0.049,-0.051c-0.021,-0.012 -0.044,-0.018 -0.07,-0.018c-0.026,0 -0.049,0.006 -0.07,0.018c-0.021,0.012 -0.037,0.029 -0.049,0.051c-0.012,0.022 -0.018,0.049 -0.018,0.08c0,0.031 0.006,0.057 0.018,0.08c0.012,0.023 0.029,0.04 0.049,0.052c0.021,0.012 0.044,0.018 0.07,0.018Z" style="fill:#444;fill-rule:nonzero;"/></g><g transform="matrix(165.65466,0,0,165.65466,697.001165,536.571552)"><path d="M0.339,0.008c-0.061,0 -0.115,-0.012 -0.161,-0.036c-0.046,-0.024 -0.082,-0.057 -0.107,-0.098c-0.025,-0.042 -0.038,-0.089 -0.038,-0.142c0,-0.054 0.012,-0.101 0.037,-0.143c0.025,-0.042 0.059,-0.074 0.102,-0.098c0.043,-0.024 0.092,-0.035 0.147,-0.035c0.053,0 0.1,0.011 0.143,0.034c0.042,0.022 0.076,0.054 0.1,0.096c0.025,0.042 0.037,0.091 0.037,0.149c0,0.006 -0,0.013 -0.001,0.02c-0,0.008 -0.001,0.015 -0.002,0.021l-0.437,0l0,-0.091l0.355,0l-0.06,0.027c0,-0.028 -0.005,-0.052 -0.017,-0.073c-0.011,-0.021 -0.027,-0.037 -0.047,-0.049c-0.02,-0.012 -0.043,-0.018 -0.07,-0.018c-0.027,0 -0.05,0.006 -0.071,0.018c-0.02,0.012 -0.036,0.028 -0.047,0.049c-0.011,0.021 -0.017,0.046 -0.017,0.074l0,0.024c-0,0.029 0.006,0.055 0.019,0.077c0.013,0.022 0.031,0.039 0.055,0.051c0.024,0.012 0.052,0.018 0.084,0.018c0.029,-0 0.054,-0.004 0.075,-0.013c0.022,-0.009 0.042,-0.022 0.06,-0.04l0.083,0.09c-0.025,0.028 -0.056,0.05 -0.093,0.065c-0.037,0.015 -0.08,0.022 -0.129,0.022Z" style="fill:#444;fill-rule:nonzero;"/></g><g transform="matrix(165.65466,0,0,165.65466,801.529255,536.571552)"><path d="M0.072,-0l0,-0.538l0.149,0l-0,0.149l-0.028,-0.045c0.019,-0.036 0.047,-0.064 0.083,-0.083c0.036,-0.019 0.077,-0.029 0.123,-0.029c0.043,0 0.081,0.008 0.115,0.025c0.034,0.017 0.06,0.043 0.08,0.078c0.019,0.035 0.029,0.08 0.029,0.135l0,0.308l-0.156,-0l0,-0.284c0,-0.043 -0.01,-0.075 -0.029,-0.096c-0.019,-0.021 -0.046,-0.031 -0.08,-0.031c-0.025,0 -0.047,0.005 -0.067,0.016c-0.02,0.01 -0.035,0.026 -0.046,0.047c-0.011,0.021 -0.016,0.049 -0.016,0.082l0,0.266l-0.156,-0Z" style="fill:#444;fill-rule:nonzero;"/></g><g transform="matrix(165.65466,0,0,165.65466,915.996625,536.571552)"></g><g transform="matrix(165.65466,0,0,165.65466,962.876893,536.571552)"></g><g transform="matrix(165.65466,0,0,165.65466,378.778563,703.736345)"><path d="M0.072,-0l0,-0.538l0.149,0l-0,0.147l-0.028,-0.043c0.019,-0.037 0.045,-0.064 0.08,-0.083c0.034,-0.019 0.074,-0.028 0.118,-0.028c0.049,0 0.092,0.012 0.129,0.037c0.037,0.025 0.062,0.063 0.074,0.115l-0.055,-0.015c0.018,-0.042 0.047,-0.075 0.086,-0.1c0.04,-0.025 0.085,-0.037 0.137,-0.037c0.043,0 0.08,0.008 0.113,0.025c0.033,0.017 0.059,0.043 0.078,0.078c0.019,0.035 0.028,0.08 0.028,0.135l0,0.308l-0.156,-0l0,-0.284c0,-0.043 -0.009,-0.075 -0.027,-0.096c-0.018,-0.021 -0.043,-0.031 -0.075,-0.031c-0.023,0 -0.043,0.005 -0.061,0.015c-0.018,0.01 -0.032,0.026 -0.042,0.046c-0.01,0.021 -0.015,0.047 -0.015,0.079l0,0.27l-0.156,-0l0,-0.284c0,-0.043 -0.009,-0.075 -0.027,-0.096c-0.018,-0.021 -0.043,-0.031 -0.075,-0.031c-0.023,0 -0.043,0.005 -0.061,0.015c-0.018,0.01 -0.032,0.026 -0.042,0.046c-0.01,0.021 -0.015,0.047 -0.015,0.079l0,0.27l-0.156,-0Z" style="fill:#444;fill-rule:nonzero;"/></g><g transform="matrix(165.65466,0,0,165.65466,552.550301,703.736345)"><path d="M0.072,-0l0,-0.538l0.156,0l0,0.538l-0.156,-0Zm0.078,-0.613c-0.029,0 -0.052,-0.008 -0.07,-0.025c-0.018,-0.017 -0.027,-0.037 -0.027,-0.062c0,-0.025 0.009,-0.045 0.027,-0.062c0.018,-0.017 0.041,-0.025 0.07,-0.025c0.029,0 0.052,0.008 0.07,0.024c0.018,0.016 0.027,0.036 0.027,0.061c0,0.026 -0.009,0.047 -0.027,0.064c-0.018,0.017 -0.041,0.026 -0.071,0.026Z" style="fill:#444;fill-rule:nonzero;"/></g><g transform="matrix(165.65466,0,0,165.65466,602.412354,703.736345)"><path d="M0.292,0.008c-0.064,0 -0.113,-0.016 -0.148,-0.048c-0.035,-0.032 -0.053,-0.08 -0.053,-0.144l0,-0.472l0.156,0l0,0.47c0,0.023 0.006,0.04 0.018,0.053c0.012,0.013 0.028,0.019 0.049,0.019c0.025,0 0.046,-0.007 0.064,-0.02l0.041,0.11c-0.016,0.011 -0.035,0.02 -0.057,0.025c-0.022,0.005 -0.045,0.008 -0.069,0.008Zm-0.284,-0.426l0,-0.12l0.373,0l0,0.12l-0.373,0Z" style="fill:#444;fill-rule:nonzero;"/></g><g transform="matrix(165.65466,0,0,165.65466,721.3524,703.736345)"><path d="M0.418,0.012c-0.054,0 -0.105,-0.009 -0.151,-0.027c-0.046,-0.018 -0.086,-0.043 -0.12,-0.075c-0.034,-0.032 -0.06,-0.071 -0.079,-0.115c-0.019,-0.044 -0.028,-0.092 -0.028,-0.145c0,-0.053 0.009,-0.101 0.028,-0.145c0.019,-0.044 0.045,-0.082 0.08,-0.115c0.034,-0.032 0.074,-0.058 0.121,-0.075c0.046,-0.018 0.097,-0.026 0.151,-0.026c0.061,0 0.116,0.01 0.165,0.031c0.049,0.021 0.09,0.052 0.123,0.092l-0.104,0.096c-0.024,-0.027 -0.051,-0.048 -0.08,-0.062c-0.029,-0.014 -0.062,-0.021 -0.097,-0.021c-0.033,0 -0.063,0.005 -0.09,0.016c-0.027,0.011 -0.051,0.026 -0.071,0.046c-0.02,0.02 -0.035,0.044 -0.046,0.071c-0.011,0.028 -0.017,0.058 -0.017,0.091c0,0.033 0.006,0.063 0.017,0.091c0.011,0.027 0.027,0.051 0.046,0.071c0.02,0.02 0.044,0.035 0.071,0.046c0.027,0.011 0.057,0.016 0.09,0.016c0.035,0 0.067,-0.007 0.097,-0.021c0.029,-0.014 0.056,-0.035 0.08,-0.062l0.104,0.096c-0.033,0.04 -0.074,0.071 -0.123,0.092c-0.049,0.021 -0.104,0.032 -0.165,0.032Z" style="fill:#980600;fill-rule:nonzero;"/></g><g transform="matrix(165.65466,0,0,165.65466,841.286373,703.736345)"><path d="M0.083,-0l0,-0.7l0.134,0l0.298,0.494l-0.071,0l0.293,-0.494l0.134,0l0.001,0.7l-0.152,-0l-0.001,-0.467l0.029,0l-0.234,0.392l-0.073,-0l-0.239,-0.392l0.034,0l0,0.467l-0.152,-0Z" style="fill:#980600;fill-rule:nonzero;"/></g><g transform="matrix(165.65466,0,0,165.65466,999.486573,703.736345)"><path d="M0.228,-0l0,-0.568l-0.224,0l-0,-0.132l0.61,0l0,0.132l-0.224,0l0,0.568l-0.162,-0Z" style="fill:#980600;fill-rule:nonzero;"/></g><g transform="matrix(165.65466,0,0,165.65466,1101.861153,703.736345)"></g></g></g></svg>